<svg width="212" height="48" viewBox="0 0 212 48" fill="none" xmlns="http://www.w3.org/2000/svg">
<path d="M0 13.7735C0 13.1573 0.308382 12.5874 0.810057 12.2764L20.2307 0.239547C21.3208 -0.436059 22.6909 0.397701 22.6909 1.73664V19.8749L11.4659 12.7785V47.9999H1.6351C0.73206 47.9999 0 47.2236 0 46.2659V13.7735Z" fill="#0071E3"/>
<path d="M22.6912 19.897L33.2761 26.7846C33.7608 27.0999 34.0561 27.6596 34.0561 28.2626V46.266C34.0561 47.2236 33.3241 48 32.421 48H24.3263C23.4232 48 22.6912 47.2236 22.6912 46.266V19.897Z" fill="#0071E3"/>
<path d="M47.895 8.87669V25.5369H54.5685C59.5224 25.5369 62.4492 22.4312 62.4492 17.1087C62.4492 11.7977 59.5338 8.87669 54.5685 8.87669H47.895ZM52.0745 12.2942H54.0219C56.6639 12.2942 58.2014 13.9914 58.2014 17.1202C58.2014 20.4454 56.7437 22.1195 54.0219 22.1195H52.0745V12.2942Z" fill="black"/>
<path d="M70.1704 25.8371C74.0766 25.8371 76.5137 23.4472 76.5137 19.2446C76.5137 15.1228 74.0425 12.6636 70.1704 12.6636C66.3212 12.6636 63.8272 15.1344 63.8272 19.2446C63.8272 23.4357 66.2643 25.8371 70.1704 25.8371ZM70.1704 22.8353C68.7811 22.8353 67.9269 21.5537 67.9269 19.2562C67.9269 16.9932 68.8038 15.6655 70.1704 15.6655C71.5484 15.6655 72.4253 16.9932 72.4253 19.2562C72.4253 21.5537 71.5484 22.8353 70.1704 22.8353Z" fill="black"/>
<path d="M77.7436 25.5369H88.4828V22.4658H82.9936V22.385L88.2892 15.4577V12.9638H77.8803V16.0349H83.5744V16.1158L77.7436 23.3664V25.5369Z" fill="black"/>
<path d="M95.9649 15.5731C97.2404 15.5731 98.14 16.4737 98.2084 17.813H93.6986C93.8011 16.5083 94.7236 15.5731 95.9649 15.5731ZM98.2995 21.5653C98.0148 22.4196 97.172 22.9392 96.0901 22.9392C94.6325 22.9392 93.6417 21.9001 93.6417 20.3992V20.1452H102.012V18.9906C102.012 15.1459 99.6319 12.6636 95.8966 12.6636C92.1043 12.6636 89.7241 15.2498 89.7241 19.3139C89.7241 23.3779 92.0815 25.8371 96.0332 25.8371C99.2789 25.8371 101.557 24.163 101.944 21.5653H98.2995Z" fill="black"/>
<path d="M103.584 25.5369H107.626V18.4249C107.626 17.0394 108.424 16.058 109.711 16.058C111.032 16.058 111.703 16.9124 111.703 18.3441V25.5369H115.735V17.4666C115.735 14.4763 114.198 12.7214 111.43 12.7214C109.528 12.7214 108.23 13.6566 107.592 15.3307H107.513V12.9638H103.584V25.5369Z" fill="black"/>
<path d="M130.289 25.5369C133.808 25.5369 136.029 23.655 136.029 20.734C136.029 18.5172 134.275 16.8431 132.054 16.7392V16.6469C133.876 16.3929 135.266 14.9035 135.266 13.0331C135.266 10.4584 133.318 8.87669 130.084 8.87669H122.443V25.5369H130.289ZM126.622 11.8785H128.979C130.38 11.8785 131.2 12.5713 131.2 13.7374C131.2 14.9381 130.289 15.6655 128.774 15.6655H126.622V11.8785ZM126.622 22.5351V18.2401H129.082C130.802 18.2401 131.781 19.0022 131.781 20.3645C131.781 21.7731 130.824 22.5351 129.105 22.5351H126.622Z" fill="#0071E3"/>
<path d="M149.615 12.9638H145.584V20.0759C145.584 21.496 144.786 22.4427 143.534 22.4427C142.27 22.4427 141.507 21.6461 141.507 20.1567V12.9638H137.464V21.0457C137.464 24.0129 139.343 25.7794 142.008 25.7794C143.875 25.7794 145.06 24.8096 145.618 23.1586H145.697V25.5369H149.615V12.9638Z" fill="#0071E3"/>
<path d="M151.608 25.5369H155.639V12.9638H151.608V25.5369ZM153.624 11.9478C154.797 11.9478 155.685 11.0704 155.685 9.93889C155.685 8.80742 154.797 7.9415 153.624 7.9415C152.451 7.9415 151.551 8.80742 151.551 9.93889C151.551 11.0704 152.451 11.9478 153.624 11.9478Z" fill="#0071E3"/>
<path d="M157.678 25.5369H161.721V8.87669H157.678V25.5369Z" fill="#0071E3"/>
<path d="M168.303 25.7217C170.148 25.7217 171.583 24.7172 172.084 23.3779H172.164V25.5369H176.172V8.87669H172.141V15.1806H172.061C171.515 13.772 170.148 12.7791 168.349 12.7791C165.251 12.7791 163.361 15.2037 163.361 19.2215C163.361 23.2856 165.217 25.7217 168.303 25.7217ZM169.818 15.9772C171.264 15.9772 172.152 17.2357 172.152 19.2562C172.152 21.2997 171.276 22.5236 169.818 22.5236C168.36 22.5236 167.495 21.2882 167.495 19.2562C167.495 17.2357 168.372 15.9772 169.818 15.9772Z" fill="#0071E3"/>
<path d="M184.019 15.5731C185.294 15.5731 186.194 16.4737 186.262 17.813H181.753C181.855 16.5083 182.778 15.5731 184.019 15.5731ZM186.354 21.5653C186.069 22.4196 185.226 22.9392 184.144 22.9392C182.687 22.9392 181.696 21.9001 181.696 20.3992V20.1452H190.066V18.9906C190.066 15.1459 187.686 12.6636 183.951 12.6636C180.158 12.6636 177.778 15.2498 177.778 19.3139C177.778 23.3779 180.136 25.8371 184.087 25.8371C187.333 25.8371 189.611 24.163 189.998 21.5653H186.354Z" fill="#0071E3"/>
<path d="M191.638 25.5369H195.681V18.9213C195.681 17.1664 196.603 16.1966 198.3 16.1966C198.778 16.1966 199.245 16.2889 199.587 16.4275V12.9407C199.313 12.8368 198.972 12.7791 198.562 12.7791C197.104 12.7791 196.102 13.645 195.646 15.3422H195.567V12.9638H191.638V25.5369Z" fill="#0071E3"/>
<path d="M200.612 16.7739C200.612 18.702 201.887 19.9951 204.313 20.5146L206.659 21.0111C207.627 21.2189 208.003 21.5075 208.003 22.0155C208.003 22.6852 207.342 23.0777 206.272 23.0777C205.087 23.0777 204.347 22.5236 204.233 21.5884H200.316C200.486 24.163 202.582 25.8371 206.203 25.8371C209.665 25.8371 212 24.163 212 21.5537C212 19.6487 210.941 18.6212 208.47 18.0901L205.873 17.559C204.939 17.3627 204.484 17.0048 204.484 16.5083C204.484 15.8618 205.121 15.423 206.112 15.423C207.228 15.423 207.934 15.9888 207.969 16.8893H211.658C211.636 14.2916 209.529 12.6636 206.146 12.6636C202.73 12.6636 200.612 14.2569 200.612 16.7739Z" fill="#0071E3"/>
<path d="M49.8624 40.7754C51.3014 40.7754 52.2809 40.0064 52.5193 38.697H51.5528C51.3577 39.4616 50.7379 39.9142 49.8667 39.9142C48.7181 39.9142 47.99 38.9782 47.99 37.4974C47.99 36.0298 48.7268 35.085 49.8624 35.085C50.7119 35.085 51.3794 35.6167 51.5528 36.4296H52.515C52.3503 35.107 51.2797 34.2238 49.8624 34.2238C48.1157 34.2238 46.9974 35.4893 46.9974 37.4974C46.9974 39.5187 48.107 40.7754 49.8624 40.7754Z" fill="#9C9C9C"/>
<path d="M56.0994 34.2238C54.2963 34.2238 53.1694 35.4849 53.1694 37.5018C53.1694 39.5187 54.2963 40.7754 56.0994 40.7754C57.8981 40.7754 59.0294 39.5187 59.0294 37.5018C59.0294 35.4849 57.8981 34.2238 56.0994 34.2238ZM56.0994 35.0894C57.287 35.0894 58.0325 36.021 58.0325 37.5018C58.0325 38.9782 57.287 39.9098 56.0994 39.9098C54.9118 39.9098 54.162 38.9782 54.162 37.5018C54.162 36.021 54.9118 35.0894 56.0994 35.0894Z" fill="#9C9C9C"/>
<path d="M60.9018 40.67V35.999H60.9408L64.1828 40.67H65.0583V34.3292H64.1134V39.0046H64.0788L60.8368 34.3292H59.9569V40.67H60.9018Z" fill="#9C9C9C"/>
<path d="M65.9382 38.9035C65.9989 40.0504 66.9351 40.7754 68.322 40.7754C69.8043 40.7754 70.7362 40.0328 70.7362 38.8464C70.7362 37.9192 70.2031 37.3963 68.9201 37.0887L68.231 36.9174C67.4248 36.7152 67.0954 36.4516 67.0954 36.0034C67.0954 35.4409 67.6112 35.0543 68.3654 35.0543C69.1195 35.0543 69.6353 35.4365 69.6916 36.0693H70.6365C70.6062 34.9752 69.7003 34.2238 68.3784 34.2238C67.0434 34.2238 66.1029 34.9752 66.1029 36.0693C66.1029 36.9525 66.636 37.4974 67.7846 37.7786L68.5951 37.9764C69.4056 38.1785 69.748 38.4729 69.748 38.965C69.748 39.5319 69.1802 39.9449 68.3914 39.9449C67.5679 39.9449 66.9654 39.5319 66.896 38.9035H65.9382Z" fill="#9C9C9C"/>
<path d="M74.1299 40.67V35.1773H76.0413V34.3292H71.2433V35.1773H73.159V40.67H74.1299Z" fill="#9C9C9C"/>
<path d="M77.8054 35.1553H79.1403C79.8902 35.1553 80.3453 35.5859 80.3453 36.2934C80.3453 37.0184 79.9162 37.4359 79.1663 37.4359H77.8054V35.1553ZM77.8054 38.2312H79.1403L80.4146 40.67H81.5329L80.1329 38.0774C80.8957 37.8182 81.3465 37.1239 81.3465 36.267C81.3465 35.085 80.5446 34.3292 79.2574 34.3292H76.8345V40.67H77.8054V38.2312Z" fill="#9C9C9C"/>
<path d="M83.2579 34.3292H82.287V38.4421C82.287 39.8087 83.2492 40.7754 84.8182 40.7754C86.3872 40.7754 87.3494 39.8087 87.3494 38.4421V34.3292H86.3829V38.3586C86.3829 39.2638 85.8151 39.901 84.8182 39.901C83.8213 39.901 83.2579 39.2638 83.2579 38.3586V34.3292Z" fill="#9C9C9C"/>
<path d="M91.1419 40.7754C92.5809 40.7754 93.5604 40.0064 93.7988 38.697H92.8323C92.6372 39.4616 92.0174 39.9142 91.1462 39.9142C89.9977 39.9142 89.2695 38.9782 89.2695 37.4974C89.2695 36.0298 90.0063 35.085 91.1419 35.085C91.9914 35.085 92.6589 35.6167 92.8323 36.4296H93.7945C93.6298 35.107 92.5592 34.2238 91.1419 34.2238C89.3952 34.2238 88.277 35.4893 88.277 37.4974C88.277 39.5187 89.3865 40.7754 91.1419 40.7754Z" fill="#9C9C9C"/>
<path d="M96.9282 40.67V35.1773H98.8396V34.3292H94.0415V35.1773H95.9573V40.67H96.9282Z" fill="#9C9C9C"/>
<path d="M100.604 40.67V34.3292H99.6327V40.67H100.604Z" fill="#9C9C9C"/>
<path d="M104.461 34.2238C102.658 34.2238 101.531 35.4849 101.531 37.5018C101.531 39.5187 102.658 40.7754 104.461 40.7754C106.26 40.7754 107.391 39.5187 107.391 37.5018C107.391 35.4849 106.26 34.2238 104.461 34.2238ZM104.461 35.0894C105.649 35.0894 106.394 36.021 106.394 37.5018C106.394 38.9782 105.649 39.9098 104.461 39.9098C103.274 39.9098 102.524 38.9782 102.524 37.5018C102.524 36.021 103.274 35.0894 104.461 35.0894Z" fill="#9C9C9C"/>
<path d="M109.263 40.67V35.999H109.302L112.545 40.67H113.42V34.3292H112.475V39.0046H112.44L109.198 34.3292H108.319V40.67H109.263Z" fill="#9C9C9C"/>
<path d="M119.02 40.7754C120.459 40.7754 121.438 40.0064 121.677 38.697H120.71C120.515 39.4616 119.895 39.9142 119.024 39.9142C117.876 39.9142 117.147 38.9782 117.147 37.4974C117.147 36.0298 117.884 35.085 119.02 35.085C119.869 35.085 120.537 35.6167 120.71 36.4296H121.672C121.508 35.107 120.437 34.2238 119.02 34.2238C117.273 34.2238 116.155 35.4893 116.155 37.4974C116.155 39.5187 117.265 40.7754 119.02 40.7754Z" fill="#9C9C9C"/>
<path d="M125.257 34.2238C123.454 34.2238 122.327 35.4849 122.327 37.5018C122.327 39.5187 123.454 40.7754 125.257 40.7754C127.056 40.7754 128.187 39.5187 128.187 37.5018C128.187 35.4849 127.056 34.2238 125.257 34.2238ZM125.257 35.0894C126.444 35.0894 127.19 36.021 127.19 37.5018C127.19 38.9782 126.444 39.9098 125.257 39.9098C124.069 39.9098 123.319 38.9782 123.319 37.5018C123.319 36.021 124.069 35.0894 125.257 35.0894Z" fill="#9C9C9C"/>
<path d="M135.442 40.67V34.3292H134.316L132.296 39.3341H132.261L130.237 34.3292H129.114V40.67H129.999V36.0034H130.029L131.919 40.6216H132.638L134.524 36.0034H134.554V40.67H135.442Z" fill="#9C9C9C"/>
<path d="M136.595 34.3292V40.67H137.566V38.5036H138.91C140.136 38.5036 140.999 37.6512 140.999 36.412C140.999 35.1773 140.154 34.3292 138.94 34.3292H136.595ZM137.566 35.1597H138.684C139.525 35.1597 140.006 35.6167 140.006 36.4164C140.006 37.2162 139.525 37.6776 138.68 37.6776H137.566V35.1597Z" fill="#9C9C9C"/>
<path d="M145.403 40.67H146.43L144.172 34.3292H143.123L140.865 40.67H141.874L142.447 38.9562H144.83L145.403 40.67ZM143.625 35.3838H143.652L144.583 38.1653H142.694L143.625 35.3838Z" fill="#9C9C9C"/>
<path d="M148.064 40.67V35.999H148.103L151.345 40.67H152.22V34.3292H151.275V39.0046H151.241L147.999 34.3292H147.119V40.67H148.064Z" fill="#9C9C9C"/>
<path d="M156.087 40.67V38.073L158.293 34.3292H157.218L155.623 37.1283H155.592L153.997 34.3292H152.914L155.116 38.073V40.67H156.087Z" fill="#9C9C9C"/>
</svg>
